<?xml version="1.0" encoding="UTF-8" standalone="no"?>
<!DOCTYPE svg PUBLIC "-//W3C//DTD SVG 1.1//EN"
 "http://www.w3.org/Graphics/SVG/1.1/DTD/svg11.dtd">
<!-- Generated by graphviz version 13.1.2 (20250808.2320)
 -->
<!-- Title: git Pages: 1 -->
<svg width="141pt" height="214pt"
 viewBox="0.00 0.00 141.00 214.00" xmlns="http://www.w3.org/2000/svg" xmlns:xlink="http://www.w3.org/1999/xlink">
<g id="graph0" class="graph" transform="scale(1 1) rotate(0) translate(4 210.25)">
<title>git</title>
<polygon fill="#f8f9fa" stroke="none" points="-4,4 -4,-210.25 137,-210.25 137,4 -4,4"/>
<!-- 17c8637c7ca982be96bbef8a9cbbe892249d8091 -->
<g id="node1" class="node">
<title>17c8637c7ca982be96bbef8a9cbbe892249d8091</title>
<path fill="#e3f2fd" stroke="#2c3e50" stroke-width="0" d="M121,-206.25C121,-206.25 12,-206.25 12,-206.25 6,-206.25 0,-200.25 0,-194.25 0,-194.25 0,-142 0,-142 0,-136 6,-130 12,-130 12,-130 121,-130 121,-130 127,-130 133,-136 133,-142 133,-142 133,-194.25 133,-194.25 133,-200.25 127,-206.25 121,-206.25"/>
<text xml:space="preserve" text-anchor="middle" x="66.5" y="-194.65" font-family="Arial" font-size="8.00" fill="#2c3e50">🌿 master ⭐</text>
<text xml:space="preserve" text-anchor="middle" x="66.5" y="-184.9" font-family="Arial" font-size="8.00" fill="#2c3e50">📄 This is the main development</text>
<text xml:space="preserve" text-anchor="middle" x="66.5" y="-175.15" font-family="Arial" font-size="8.00" fill="#2c3e50">branch for the Git Graph</text>
<text xml:space="preserve" text-anchor="middle" x="66.5" y="-165.4" font-family="Arial" font-size="8.00" fill="#2c3e50">Visualizer (GGV) project,</text>
<text xml:space="preserve" text-anchor="middle" x="66.5" y="-155.65" font-family="Arial" font-size="8.00" fill="#2c3e50">featuring enhanced visual</text>
<text xml:space="preserve" text-anchor="middle" x="66.5" y="-145.9" font-family="Arial" font-size="8.00" fill="#2c3e50">styling and condensed graph</text>
<text xml:space="preserve" text-anchor="middle" x="66.5" y="-136.15" font-family="Arial" font-size="8.00" fill="#2c3e50">layouts.</text>
</g>
<!-- 77d057123df985f3261b1de469d881b14112d99b -->
<g id="node2" class="node">
<title>77d057123df985f3261b1de469d881b14112d99b</title>
<path fill="#fce4ec" stroke="#2c3e50" stroke-width="0" d="M98.38,-80.51C98.38,-80.51 98.38,-85.49 98.38,-85.49 98.38,-87.97 96.22,-91.68 94.05,-92.9 94.05,-92.9 84.03,-98.56 84.03,-98.56 81.87,-99.78 77.22,-101 74.73,-101 74.73,-101 58.27,-101 58.27,-101 55.78,-101 51.13,-99.78 48.97,-98.56 48.97,-98.56 38.95,-92.9 38.95,-92.9 36.78,-91.68 34.62,-87.97 34.62,-85.49 34.62,-85.49 34.62,-80.51 34.62,-80.51 34.62,-78.03 36.78,-74.32 38.95,-73.1 38.95,-73.1 48.97,-67.44 48.97,-67.44 51.13,-66.22 55.78,-65 58.27,-65 58.27,-65 74.73,-65 74.73,-65 77.22,-65 81.87,-66.22 84.03,-67.44 84.03,-67.44 94.05,-73.1 94.05,-73.1 96.22,-74.32 98.38,-78.03 98.38,-80.51"/>
<text xml:space="preserve" text-anchor="middle" x="66.5" y="-80.28" font-family="Arial" font-size="8.00" fill="#2c3e50">🏷️ v1.0.0</text>
</g>
<!-- 77d057123df985f3261b1de469d881b14112d99b&#45;&gt;17c8637c7ca982be96bbef8a9cbbe892249d8091 -->
<g id="edge1" class="edge">
<title>77d057123df985f3261b1de469d881b14112d99b&#45;&gt;17c8637c7ca982be96bbef8a9cbbe892249d8091</title>
<path fill="none" stroke="#495057" stroke-width="2" d="M66.5,-100.64C66.5,-100.64 66.5,-119.72 66.5,-119.72"/>
<polygon fill="#495057" stroke="#495057" stroke-width="2" points="66.5,-127.72 62.9,-119.72 66,-126.15 66,-119.72 66.5,-119.72 67,-119.72 67,-126.15 70.1,-119.72 66.5,-127.72"/>
</g>
<!-- 97dd6a867dd3e46492fb744306d82b45f49f07b4 -->
<g id="node3" class="node">
<title>97dd6a867dd3e46492fb744306d82b45f49f07b4</title>
<path fill="#fff3e0" stroke="#2c3e50" stroke-width="0" d="M97.61,-25.68C97.61,-25.68 72.87,-33.89 72.87,-33.89 69.68,-34.94 63.32,-34.94 60.13,-33.89 60.13,-33.89 35.39,-25.68 35.39,-25.68 32.21,-24.62 29.03,-20.21 29.04,-16.85 29.04,-16.85 29.05,-10.15 29.05,-10.15 29.06,-6.79 32.42,-3.44 35.77,-3.44 35.77,-3.44 97.23,-3.44 97.23,-3.44 100.58,-3.44 103.94,-6.79 103.95,-10.15 103.95,-10.15 103.96,-16.85 103.96,-16.85 103.97,-20.21 100.79,-24.62 97.61,-25.68"/>
<text xml:space="preserve" text-anchor="middle" x="66.5" y="-15.28" font-family="Arial" font-size="8.00" fill="#2c3e50">📍 ROOT</text>
</g>
<!-- 97dd6a867dd3e46492fb744306d82b45f49f07b4&#45;&gt;77d057123df985f3261b1de469d881b14112d99b -->
<g id="edge2" class="edge">
<title>97dd6a867dd3e46492fb744306d82b45f49f07b4&#45;&gt;77d057123df985f3261b1de469d881b14112d99b</title>
<path fill="none" stroke="#495057" stroke-width="2" d="M66.5,-35.76C66.5,-35.76 66.5,-54.82 66.5,-54.82"/>
<polygon fill="#495057" stroke="#495057" stroke-width="2" points="66.5,-62.82 62.9,-54.82 66,-61.26 66,-54.82 66.5,-54.82 67,-54.82 67,-61.26 70.1,-54.82 66.5,-62.82"/>
</g>
</g>
</svg>
