<?xml version="1.0" encoding="UTF-8" standalone="no"?>
<!DOCTYPE svg PUBLIC "-//W3C//DTD SVG 1.1//EN"
 "http://www.w3.org/Graphics/SVG/1.1/DTD/svg11.dtd">
<!-- Generated by graphviz version 13.1.2 (20250808.2320)
 -->
<!-- Title: git Pages: 1 -->
<svg width="215pt" height="209pt"
 viewBox="0.00 0.00 215.00 209.00" xmlns="http://www.w3.org/2000/svg" xmlns:xlink="http://www.w3.org/1999/xlink">
<g id="graph0" class="graph" transform="scale(1 1) rotate(0) translate(4 204.5)">
<title>git</title>
<polygon fill="white" stroke="none" points="-4,4 -4,-204.5 210.5,-204.5 210.5,4 -4,4"/>
<g id="clust1" class="cluster">
<title>cluster_refs_heads_master</title>
<polygon fill="none" stroke="blue" stroke-dasharray="1,5" points="48.25,-8 48.25,-84.5 159.25,-84.5 159.25,-8 48.25,-8"/>
<text xml:space="preserve" text-anchor="middle" x="103.75" y="-67.2" font-family="Times New Roman,serif" font-size="14.00">refs/heads/master</text>
</g>
<!-- f172e00d7bec33d4de93a424fecbe3d4659257cd -->
<g id="node1" class="node">
<title>f172e00d7bec33d4de93a424fecbe3d4659257cd</title>
<polygon fill="white" stroke="black" points="139.75,-52 66.75,-52 66.75,-16 139.75,-16 139.75,-52"/>
<text xml:space="preserve" text-anchor="middle" x="103.25" y="-30.12" font-family="Times New Roman,serif" font-size="10.00">next try {TIP}</text>
</g>
<!-- 2fb030b5bfbc7bae6b55347cb849ffc067a54c3e -->
<g id="node2" class="node">
<title>2fb030b5bfbc7bae6b55347cb849ffc067a54c3e</title>
<polygon fill="white" stroke="black" points="206.5,-128.5 0,-128.5 0,-92.5 206.5,-92.5 206.5,-128.5"/>
<text xml:space="preserve" text-anchor="middle" x="103.25" y="-106.62" font-family="Times New Roman,serif" font-size="10.00">Fix connected graph visualization for branches</text>
</g>
<!-- 2fb030b5bfbc7bae6b55347cb849ffc067a54c3e&#45;&gt;f172e00d7bec33d4de93a424fecbe3d4659257cd -->
<g id="edge2" class="edge">
<title>2fb030b5bfbc7bae6b55347cb849ffc067a54c3e&#45;&gt;f172e00d7bec33d4de93a424fecbe3d4659257cd</title>
<path fill="none" stroke="black" d="M103.25,-92.22C103.25,-83.82 103.25,-73.49 103.25,-63.93"/>
<polygon fill="black" stroke="black" points="106.75,-63.96 103.25,-53.96 99.75,-63.96 106.75,-63.96"/>
</g>
<!-- 97dd6a867dd3e46492fb744306d82b45f49f07b4 -->
<g id="node3" class="node">
<title>97dd6a867dd3e46492fb744306d82b45f49f07b4</title>
<polygon fill="white" stroke="black" points="197.12,-200.5 9.38,-200.5 9.38,-164.5 197.12,-164.5 197.12,-200.5"/>
<text xml:space="preserve" text-anchor="middle" x="103.25" y="-178.62" font-family="Times New Roman,serif" font-size="10.00">Initial commit: Git Graph Visualizer (ggv)</text>
</g>
<!-- 97dd6a867dd3e46492fb744306d82b45f49f07b4&#45;&gt;2fb030b5bfbc7bae6b55347cb849ffc067a54c3e -->
<g id="edge1" class="edge">
<title>97dd6a867dd3e46492fb744306d82b45f49f07b4&#45;&gt;2fb030b5bfbc7bae6b55347cb849ffc067a54c3e</title>
<path fill="none" stroke="black" d="M103.25,-164.2C103.25,-156.91 103.25,-148.23 103.25,-140.04"/>
<polygon fill="black" stroke="black" points="106.75,-140.12 103.25,-130.12 99.75,-140.12 106.75,-140.12"/>
</g>
</g>
</svg>
